<?xml version="1.0" encoding="UTF-8" standalone="no"?>
<svg
   version="1.1"
   id="svg315"
   width="219.42857"
   height="219.42857"
   viewBox="0 0 219.42857 219.42857"
   xmlns:xlink="http://www.w3.org/1999/xlink"
   xmlns="http://www.w3.org/2000/svg"
   xmlns:svg="http://www.w3.org/2000/svg">
  <style>
     path { fill: black }
     @media (prefers-color-scheme: dark) {
       path { fill: white }
     }
  </style>
  <path
     style="stroke-width:0.325999"
     d="m 107.42535,219.3967 c -0.10602,-0.26895 -1.8662,-5.66584 -3.91161,-11.99307 l -3.718924,-11.50407 -4.184286,-7.82884 -4.184291,-7.82883 -9.545513,-6.58398 -9.545513,-6.58399 14.272493,-0.1723 14.272484,-0.17229 6.35698,-2.02737 c 3.49633,-1.11505 6.45312,-2.02774 6.57064,-2.0282 0.11755,-3.2e-4 -0.13833,1.27859 -0.56855,2.84231 l -0.78223,2.84315 0.76516,-0.80566 c 0.42083,-0.44309 5.79779,-6.38021 11.94881,-13.19358 6.151,-6.81337 11.52677,-12.7624 11.94614,-13.22006 l 0.7625,-0.8321 -3.41653,-26.35584 c -1.87906,-14.495706 -3.45577,-26.387066 -3.50377,-26.42523 -0.0481,-0.03817 -1.70096,-0.550031 -3.67326,-1.137477 -1.9723,-0.587447 -3.61771,-1.091768 -3.65648,-1.120716 -0.0387,-0.02895 0.65308,-2.825361 1.53748,-6.214253 0.88442,-3.388893 1.57629,-6.184507 1.5375,-6.212474 -0.60526,-0.436509 -3.26119,-1.149957 -3.45485,-0.928063 -0.1414,0.162012 -2.28593,7.116087 -4.76561,15.453501 -2.47968,8.337414 -4.59435,15.255132 -4.69924,15.372712 -0.10495,0.11754 -3.71153,-5.928416 -8.01471,-13.435537 -4.30318,-7.507125 -7.965754,-13.654673 -8.139064,-13.661223 -0.1733,-0.0066 -0.9428,0.227824 -1.71001,0.520822 l -1.394916,0.532724 2.594786,4.945982 2.59478,4.945986 -13.360353,5.931242 -13.360352,5.931252 H 57.380425 41.765812 l 2.577941,-6.417504 2.577943,-6.417501 -1.938405,-7.492392 c -1.06612,-4.120814 -1.893407,-7.577687 -1.838411,-7.681942 0.05499,-0.104246 4.155544,-7.086313 9.11233,-15.515692 L 61.269546,39.600057 92.733879,31.946617 124.1982,24.293179 135.03311,12.146597 145.86801,1.1854775e-5 146.194,21.001453 l 0.32601,21.001439 11.57293,8.869487 c 6.36514,4.87822 11.68204,8.966902 11.81537,9.085959 0.13333,0.119058 1.93262,14.953362 3.99843,32.965117 l 3.75602,32.748635 -6.53827,13.86963 -6.53829,13.86963 -22.3631,16.61125 -22.36313,16.61124 2.6836,0.0952 2.68361,0.0952 -1.25254,0.92845 c -0.6889,0.51065 -3.00335,2.44828 -5.14324,4.30582 l -3.8907,3.37736 -2.56212,8.47596 c -1.40918,4.66178 -3.05678,10.16299 -3.66136,12.22494 -0.60455,2.06195 -1.1859,3.52893 -1.29187,3.25999 z"
     id="path379" />
</svg>
