<svg width="100%" height="33.04745101928711" viewBox="0 0 371.2272 33.047452" version="1.1" id="svg786" xmlns="http://www.w3.org/2000/svg" xmlns:svg="http://www.w3.org/2000/svg">
  <defs id="defs783"></defs>
  <g id="layer1" transform="translate(-131.88639,-168.23434)">
    <path style="font-size: 35.2777px; font-family: &quot;Shippori Mincho&quot;; fill: rgb(0, 0, 0); stroke: rgb(0, 0, 0); stroke-width: 0.352778; stroke-linecap: round;" d="m 138.05999,181.66291 c -0.11759,0 -0.17639,-0.047 -0.17639,-0.14111 0,-0.11759 0.0706,-0.24695 0.21167,-0.38806 0.39981,-0.39981 0.91722,-0.85842 1.55222,-1.37583 0.37629,-0.32926 0.71731,-0.635 1.02305,-0.91722 0.30574,-0.28222 0.45861,-0.45861 0.45861,-0.52916 0,-0.25871 -0.48213,-0.47037 -1.44638,-0.635 -0.84667,-0.16463 -1.65806,-0.50565 -2.43417,-1.02306 -0.77611,-0.54092 -1.36407,-1.04657 -1.76388,-1.51694 -0.0941,-0.11759 -0.18815,-0.2587 -0.28222,-0.42333 -0.0706,-0.16463 -0.10584,-0.30574 -0.10584,-0.42333 0,-0.0941 0.0235,-0.14111 0.0706,-0.14111 l 0.14111,0.0353 c 0.0705,0.0471 0.17639,0.11762 0.3175,0.21167 0.16463,0.0706 0.38805,0.17639 0.67028,0.3175 0.56444,0.28222 1.26999,0.5174 2.11666,0.70555 0.84667,0.18815 1.59926,0.28223 2.25777,0.28223 0.635,0 1.36407,-0.0588 2.18722,-0.17639 0.84667,-0.0941 1.43463,-0.14111 1.76388,-0.14111 0.28223,0 0.52917,0.0353 0.74083,0.10583 0.35278,0.11759 0.6938,0.36454 1.02306,0.74083 0.32926,0.35278 0.49389,0.74083 0.49389,1.16416 0,0.28223 -0.12935,0.49389 -0.38806,0.635 -0.23519,0.14111 -0.77611,0.25871 -1.62277,0.35278 -1.95203,0.25871 -4.04518,1.27 -6.27943,3.03388 -0.23519,0.16463 -0.41158,0.24695 -0.52917,0.24695 z" id="text1" class="svg-elem-1"></path>
    <path style="font-size: 35.2777px; font-family: &quot;Shippori Mincho&quot;; fill: rgb(0, 0, 0); stroke: rgb(0, 0, 0); stroke-width: 0.352778; stroke-linecap: round;" d="m 141.65832,198.10231 c -1.66981,0 -3.21027,-0.14111 -4.62138,-0.42333 -1.38759,-0.30574 -2.50472,-0.78787 -3.35138,-1.44638 -1.08185,-0.84667 -1.62278,-2.01083 -1.62278,-3.4925 0,-0.65851 0.0706,-1.19944 0.21167,-1.62277 0.14111,-0.44685 0.28222,-0.67028 0.42333,-0.67028 0.18815,0 0.28222,0.22343 0.28222,0.67028 v 0.52917 c 0,1.45814 0.85842,2.51647 2.57527,3.17499 1.12889,0.42333 2.51648,0.635 4.16277,0.635 1.34055,0 3.21027,-0.19991 5.60916,-0.59972 1.38759,-0.21167 2.28129,-0.3175 2.6811,-0.3175 0.61148,0 1.07009,0.11759 1.37583,0.35277 0.32926,0.23519 0.49389,0.55269 0.49389,0.9525 0,0.65852 -0.58796,1.16417 -1.76388,1.51694 -0.70556,0.21167 -1.6463,0.38806 -2.82222,0.52917 -1.15241,0.14111 -2.36361,0.21166 -3.6336,0.21166 z" id="path2" class="svg-elem-2"></path>
    <path style="font-size: 35.2777px; font-family: &quot;Shippori Mincho&quot;; fill: rgb(0, 0, 0); stroke: rgb(0, 0, 0); stroke-width: 0.352778; stroke-linecap: round;" d="m 180.49906,191.15261 c -0.37629,0 -0.78787,-0.23519 -1.23472,-0.70556 -0.42333,-0.49389 -0.92898,-1.22296 -1.51694,-2.18721 -0.82315,-1.34055 -1.82268,-2.51648 -2.9986,-3.52777 -1.15241,-1.03481 -2.4224,-1.88148 -3.80999,-2.54 -0.23519,-0.11759 -0.35278,-0.23519 -0.35278,-0.35278 0,-0.11759 0.15287,-0.17638 0.45861,-0.17638 l 0.42333,0.0353 c 1.22296,0.16463 2.63407,0.68204 4.23333,1.55222 1.59925,0.84667 2.96332,1.86972 4.09221,3.06916 1.15241,1.17593 1.72861,2.29305 1.72861,3.35138 0,0.39981 -0.10583,0.75259 -0.3175,1.05833 -0.18815,0.28223 -0.42334,0.42334 -0.70556,0.42334 z" id="path3" class="svg-elem-3"></path>
    <path style="font-size: 35.2777px; font-family: &quot;Shippori Mincho&quot;; fill: rgb(0, 0, 0); stroke: rgb(0, 0, 0); stroke-width: 0.352778; stroke-linecap: round;" d="m 203.28846,198.52565 c -0.32926,0 -0.6938,-0.17639 -1.09361,-0.52917 -0.3763,-0.37629 -0.64676,-0.81138 -0.81139,-1.30527 -0.87018,-2.32833 -1.30527,-5.23287 -1.30527,-8.7136 0,-1.57573 0.11759,-2.98684 0.35277,-4.23332 0.23519,-1.24648 0.55269,-2.54 0.9525,-3.88055 0.16463,-0.63499 0.3175,-1.25823 0.45861,-1.86971 0.14111,-0.61148 0.21167,-1.14065 0.21167,-1.5875 0,-0.44685 -0.0823,-0.90546 -0.24695,-1.37583 -0.16463,-0.47037 -0.37629,-0.84666 -0.635,-1.12889 -0.18815,-0.2587 -0.28222,-0.43509 -0.28222,-0.52916 0,-0.11759 0.047,-0.17639 0.14111,-0.17639 0.14111,0 0.32926,0.0705 0.56445,0.21166 0.77611,0.49389 1.38759,1.08186 1.83444,1.76389 0.47037,0.68203 0.70555,1.55222 0.70555,2.61055 0,0.44685 -0.0706,0.90546 -0.21167,1.37583 -0.14111,0.47037 -0.30573,0.92898 -0.49388,1.37583 -0.18815,0.44685 -0.30574,0.74083 -0.35278,0.88194 -0.54093,1.22296 -0.90546,2.2225 -1.09361,2.99861 -0.23519,0.91722 -0.35278,1.8462 -0.35278,2.78694 0,0.61148 0.047,1.18768 0.14111,1.7286 0.0941,0.51741 0.23519,0.77611 0.42334,0.77611 0.11759,0 0.3175,-0.23518 0.59972,-0.70555 l 0.635,-1.30528 1.19944,-2.39888 c 0.16463,-0.25871 0.28222,-0.38806 0.35278,-0.38806 0.0705,0 0.10583,0.047 0.10583,0.14112 l -0.10583,0.42333 c -0.30574,0.82315 -0.64676,1.89324 -1.02306,3.21027 -0.37629,1.29351 -0.56444,2.37536 -0.56444,3.24555 0,1.01129 0.19991,2.51647 0.59972,4.51554 0.11759,0.635 0.17639,1.0113 0.17639,1.12889 0,0.30574 -0.0941,0.54092 -0.28222,0.70555 -0.18815,0.16463 -0.38805,0.24695 -0.59972,0.24695 z" id="path4" class="svg-elem-4"></path>
    <path style="font-size: 35.2777px; font-family: &quot;Shippori Mincho&quot;; fill: rgb(0, 0, 0); stroke: rgb(0, 0, 0); stroke-width: 0.352778; stroke-linecap: round;" d="m 216.05898,178.6643 c -1.03481,0 -1.88148,-0.0941 -2.53999,-0.28222 -0.77611,-0.21167 -1.46991,-0.51741 -2.08139,-0.91722 -0.58796,-0.39981 -0.98777,-0.81139 -1.19944,-1.23472 -0.0941,-0.18815 -0.14111,-0.32926 -0.14111,-0.42333 0,-0.0706 0.0353,-0.10583 0.10583,-0.10583 0.0706,0 0.18815,0.0588 0.35278,0.17638 0.18815,0.11759 0.36454,0.21167 0.52917,0.28223 0.75259,0.30574 1.59925,0.45861 2.53999,0.45861 0.65852,0 1.55222,-0.0706 2.68111,-0.21167 1.1524,-0.14111 2.1049,-0.29398 2.85749,-0.45861 0.28222,-0.0941 0.50565,-0.14111 0.67028,-0.14111 0.44685,0 0.85842,0.14111 1.23472,0.42333 0.37629,0.25871 0.56444,0.54093 0.56444,0.84667 0,0.54092 -0.59972,0.94073 -1.79916,1.19944 -1.19945,0.2587 -2.45769,0.38805 -3.77472,0.38805 z" id="path5" class="svg-elem-5"></path>
    <path style="font-size: 35.2777px; font-family: &quot;Shippori Mincho&quot;; fill: rgb(0, 0, 0); stroke: rgb(0, 0, 0); stroke-width: 0.352778; stroke-linecap: round;" d="m 217.2937,196.86759 c -1.81092,0 -3.39842,-0.23518 -4.76249,-0.70555 -1.36407,-0.49389 -2.32832,-1.45814 -2.89277,-2.89277 -0.14111,-0.35278 -0.21166,-0.56445 -0.21166,-0.635 0,-0.0941 0.047,-0.14111 0.14111,-0.14111 0.0705,0 0.15287,0.047 0.24694,0.14111 0.11759,0.0706 0.21167,0.12935 0.28222,0.17639 0.91722,0.70555 1.94027,1.19944 3.06916,1.48166 0.54093,0.14111 1.35231,0.21167 2.43416,0.21167 1.19945,0 2.76343,-0.14111 4.69194,-0.42333 l 1.19944,-0.14111 c 0.54093,0 0.97602,0.14111 1.30527,0.42333 0.35278,0.28222 0.52917,0.58796 0.52917,0.91722 0,0.635 -0.56444,1.05833 -1.69333,1.27 -1.10537,0.21166 -2.55175,0.31749 -4.33916,0.31749 z" id="path6" class="svg-elem-6"></path>
    <path style="font-size: 35.2777px; font-family: &quot;Shippori Mincho&quot;; fill: rgb(0, 0, 0); stroke: rgb(0, 0, 0); stroke-width: 0.352778; stroke-linecap: round;" d="m 235.53228,181.45124 c -1.34055,2.11666 -2.75166,3.8923 -4.23333,5.32693 l -0.45861,-0.35277 c 1.95203,-2.82222 3.76296,-6.30295 5.43277,-10.4422 0.44685,-1.15241 0.87018,-2.45768 1.26999,-3.91583 0.39982,-1.48166 0.63501,-2.6811 0.70556,-3.59832 2.39888,0.75259 3.59832,1.28175 3.59832,1.58749 0,0.11759 -0.11759,0.21167 -0.35277,0.28223 l -0.67028,0.21166 c -0.98777,2.82222 -2.11666,5.39749 -3.38666,7.72582 0.75259,0.58796 1.12889,1.01129 1.12889,1.26999 0,0.16463 -0.10583,0.28223 -0.3175,0.35278 l -0.49389,0.21167 v 11.67692 c 0.0471,2.91629 0.14114,5.67971 0.28222,8.29026 -0.18815,0.23518 -0.48213,0.44684 -0.88194,0.63499 -0.39981,0.21167 -0.79963,0.3175 -1.19944,0.3175 -0.21167,0 -0.39981,-0.0705 -0.56444,-0.21166 -0.16463,-0.14111 -0.24695,-0.30574 -0.24695,-0.49389 0.0941,-1.38759 0.17639,-2.72815 0.24695,-4.02166 0.0706,-1.31703 0.11759,-3.03388 0.14111,-5.15054 z" id="path7" class="svg-elem-7"></path>
    <path style="font-size: 35.2777px; font-family: &quot;Shippori Mincho&quot;; fill: rgb(0, 0, 0); stroke: rgb(0, 0, 0); stroke-width: 0.352778; stroke-linecap: round;" d="m 247.03281,173.69015 c -1.66981,0.0235 -3.4337,0.18816 -5.29166,0.49388 l -0.91722,-1.79916 c 1.29351,0.14111 2.85749,0.23519 4.69193,0.28222 h 12.69998 l 0.74083,-1.09361 c 0.0706,-0.11759 0.17639,-0.27046 0.3175,-0.45861 0.16463,-0.21166 0.29398,-0.36453 0.38805,-0.45861 0.0941,-0.11759 0.18815,-0.17638 0.28222,-0.17638 0.14111,0 0.44685,0.18815 0.91722,0.56444 0.49389,0.37629 0.94075,0.78787 1.34056,1.23472 0.42333,0.42333 0.63499,0.71731 0.63499,0.88194 -0.0941,0.35278 -0.37629,0.52917 -0.84666,0.52917 h -2.68111 v 23.91828 c 0,0.68203 -0.0941,1.24648 -0.28222,1.69333 -0.18815,0.47037 -0.56444,0.85842 -1.12888,1.16416 -0.56445,0.30574 -1.38759,0.50565 -2.46944,0.59972 -0.11759,-0.77611 -0.41157,-1.30527 -0.88194,-1.5875 -0.65852,-0.39981 -1.81093,-0.69379 -3.45722,-0.88194 v -0.52916 c 2.82221,0.18815 4.50378,0.28222 5.04471,0.28222 0.35278,0 0.59972,-0.0588 0.74083,-0.17639 0.14111,-0.14111 0.21167,-0.36454 0.21167,-0.67028 v -23.81244 z" id="path8" class="svg-elem-8"></path>
    <path style="font-size: 35.2777px; font-family: &quot;Shippori Mincho&quot;; fill: rgb(0, 0, 0); stroke: rgb(0, 0, 0); stroke-width: 0.352778; stroke-linecap: round;" d="m 250.41946,178.45264 c 0.0706,-0.0941 0.15288,-0.22343 0.24695,-0.38806 0.11759,-0.16463 0.21167,-0.28222 0.28222,-0.35278 0.0941,-0.0705 0.18815,-0.10583 0.28222,-0.10583 0.14111,0 0.43509,0.17639 0.88194,0.52917 0.44685,0.32925 0.85843,0.69379 1.23472,1.09361 0.3763,0.37629 0.56445,0.64675 0.56445,0.81138 -0.11759,0.14111 -0.3175,0.29398 -0.59972,0.45861 -0.28223,0.14111 -0.58797,0.24695 -0.91722,0.3175 v 3.84527 c 0.0706,3.22203 0.15287,5.71499 0.24694,7.47887 -0.16463,0.16463 -0.47037,0.32926 -0.91722,0.49389 -0.42333,0.16463 -0.79963,0.24694 -1.12889,0.24694 -0.14111,0 -0.2587,-0.0705 -0.35277,-0.21166 -0.0706,-0.14111 -0.10584,-0.30574 -0.10584,-0.49389 l 0.14111,-0.91722 v -0.84666 h -5.82082 v 0.81138 c 0.0706,0.82315 0.1176,1.29352 0.14111,1.41111 -0.0705,0.21167 -0.30574,0.42333 -0.70555,0.635 -0.37629,0.18815 -0.76435,0.28222 -1.16416,0.28222 -0.16463,0 -0.30575,-0.0706 -0.42334,-0.21167 -0.11759,-0.14111 -0.17638,-0.30573 -0.17638,-0.49388 0.0941,-1.17593 0.17639,-2.77518 0.24694,-4.79777 v -2.78694 c 0,-2.96333 -0.15287,-5.37397 -0.45861,-7.23193 l 2.71638,1.23472 h 5.25638 z m -5.96193,1.83444 v 9.10164 h 5.82082 v -9.10164 z" id="path9" class="svg-elem-9"></path>
    <path style="font-size: 35.2777px; font-family: &quot;Shippori Mincho&quot;; fill: rgb(0, 0, 0); stroke: rgb(0, 0, 0); stroke-width: 0.352778; stroke-linecap: round;" d="m 291.37687,178.20569 c 0.77611,0 1.45814,0.24694 2.04611,0.74083 0.61148,0.49389 0.91722,1.15241 0.91722,1.97555 0,1.05833 -0.45861,1.9638 -1.37583,2.71639 -0.91722,0.72907 -2.1637,1.43463 -3.73944,2.11666 l -2.61055,1.05833 c -1.74037,0.68203 -2.90453,1.1524 -3.49249,1.41111 -0.0706,0.49389 -0.10584,1.27 -0.10584,2.32833 0,1.66981 -0.0118,2.61054 -0.0353,2.82221 -0.0235,0.35278 -0.1764,0.65852 -0.45861,0.91722 -0.25871,0.23519 -0.54093,0.35278 -0.84667,0.35278 -0.28222,0 -0.52916,-0.12935 -0.74083,-0.38806 -0.21167,-0.2587 -0.3175,-0.55268 -0.3175,-0.88194 0,-0.2587 0.0353,-0.71731 0.10583,-1.37583 l 0.21167,-2.71638 c -1.36407,0.75259 -2.43416,1.54046 -3.21027,2.36361 -0.75259,0.82314 -1.12889,1.74036 -1.12889,2.75166 0,1.7874 1.7874,2.6811 5.36221,2.6811 0.54093,0 1.09361,-0.047 1.65806,-0.14111 0.56444,-0.0941 1.0936,-0.19991 1.58749,-0.3175 0.94074,-0.21167 1.66981,-0.3175 2.18722,-0.3175 0.91722,0 1.37583,0.3175 1.37583,0.9525 0,0.70555 -0.65852,1.19944 -1.97555,1.48166 -1.31703,0.28222 -2.69286,0.42333 -4.12749,0.42333 -2.93981,0 -4.9036,-0.43509 -5.89138,-1.30527 -0.98777,-0.8937 -1.48166,-1.97555 -1.48166,-3.24555 0,-1.31703 0.49389,-2.46944 1.48166,-3.45721 1.01129,-1.01129 2.4224,-1.98731 4.23333,-2.92805 0.0235,-0.25871 0.0353,-0.62324 0.0353,-1.09361 0,-2.46944 -0.72907,-3.70416 -2.18721,-3.70416 -0.84667,0 -1.74037,0.50565 -2.68111,1.51694 -0.91722,1.01129 -1.81092,2.11666 -2.6811,3.31611 -0.0706,0.0941 -0.23519,0.34102 -0.49389,0.74083 -0.25871,0.37629 -0.50565,0.68203 -0.74083,0.91722 -0.23519,0.23518 -0.43509,0.35277 -0.59972,0.35277 -0.39982,0 -0.70556,-0.15287 -0.91722,-0.45861 -0.21167,-0.30574 -0.3175,-0.67027 -0.3175,-1.0936 0,-0.56445 0.12935,-0.98778 0.38805,-1.27 l 0.635,-0.56444 c 0.75259,-0.70556 1.39935,-1.34056 1.94027,-1.905 0.54093,-0.56444 1.02306,-1.2112 1.44639,-1.94027 1.19944,-2.04611 2.1637,-4.23333 2.89277,-6.56166 -0.91722,0.25871 -1.82268,0.38806 -2.71638,0.38806 -0.77611,0 -1.43463,-0.12935 -1.97555,-0.38806 -0.54093,-0.2587 -1.18769,-0.68203 -1.94028,-1.26999 -0.0941,-0.0706 -0.14111,-0.14112 -0.14111,-0.21167 0,-0.0941 0.0588,-0.14111 0.17639,-0.14111 0.0941,0 0.2587,0.0353 0.49389,0.10583 0.75259,0.28223 1.55221,0.42334 2.39888,0.42334 0.42333,0 1.0113,-0.047 1.76389,-0.14111 0.75259,-0.11759 1.57573,-0.34102 2.46944,-0.67028 0.16463,-0.65852 0.24694,-1.23472 0.24694,-1.72861 0,-0.94074 -0.36454,-1.70509 -1.09361,-2.29305 -0.11759,-0.0941 -0.17639,-0.18815 -0.17639,-0.28222 0.0235,-0.35278 0.21168,-0.52917 0.56445,-0.52917 0.21166,0 0.61147,0.0706 1.19944,0.21167 0.58796,0.14111 0.9525,0.30574 1.09361,0.49389 0.11759,0.14111 0.17638,0.39981 0.17638,0.77611 0,0.14111 -0.0235,0.37629 -0.0705,0.70555 0.37629,0.25871 0.88194,0.38806 1.51694,0.38806 0.32926,0 0.5762,-0.0353 0.74083,-0.10584 0.23519,-0.047 0.47037,-0.0705 0.70556,-0.0705 0.54092,0 0.81138,0.19991 0.81138,0.59972 0,0.30574 -0.18815,0.64676 -0.56444,1.02305 -0.35278,0.3763 -0.79963,0.70556 -1.34055,0.98778 -0.75259,0.42333 -1.72861,0.85842 -2.92805,1.30527 -0.84667,2.72815 -1.68157,4.99768 -2.50472,6.8086 0.68203,-0.39981 1.35231,-0.59972 2.01083,-0.59972 1.15241,0 2.04611,0.3175 2.6811,0.9525 0.65852,0.63499 1.09361,1.49342 1.30528,2.57527 0.42333,-0.98778 0.88194,-1.8462 1.37583,-2.57527 0.49389,-0.75259 1.09361,-1.50519 1.79916,-2.25778 0.70555,-0.75259 1.57574,-1.39934 2.61055,-1.94027 1.03481,-0.54093 2.02259,-0.81139 2.96333,-0.81139 z m -11.28886,-5.60915 c 0,0.0705 -0.10583,0.50564 -0.3175,1.30527 0.16463,-0.0706 0.30574,-0.14111 0.42333,-0.21166 0.11759,-0.0941 0.22343,-0.16463 0.3175,-0.21167 0.16463,-0.0941 0.24694,-0.18815 0.24694,-0.28222 0,-0.0941 -0.0941,-0.21167 -0.28222,-0.35278 z m 8.29025,11.88858 c 1.15241,-0.68203 2.08139,-1.42286 2.78694,-2.22249 0.72907,-0.82315 1.09361,-1.49342 1.09361,-2.01083 0,-0.68203 -0.44685,-1.02305 -1.34055,-1.02305 -0.635,0 -1.36407,0.22342 -2.18722,0.67027 -0.82315,0.44685 -1.5875,1.02306 -2.29305,1.72861 -0.635,0.635 -1.24648,1.49342 -1.83444,2.57527 -0.58796,1.05833 -1.01129,1.99907 -1.27,2.82222 v 0.0353 l 0.45861,-0.21166 0.74084,-0.35278 c 1.90499,-0.94074 3.18675,-1.61102 3.84526,-2.01083 z" id="path10" class="svg-elem-10"></path>
    <path style="font-size: 35.2777px; font-family: &quot;Shippori Mincho&quot;; fill: rgb(0, 0, 0); stroke: rgb(0, 0, 0); stroke-width: 0.352778; stroke-linecap: round;" d="m 329.51206,174.53681 c 0.0705,-0.0941 0.16463,-0.23518 0.28222,-0.42333 0.14111,-0.18815 0.25871,-0.32926 0.35278,-0.42333 0.0941,-0.0941 0.18815,-0.14111 0.28222,-0.14111 0.14111,0 0.42333,0.16463 0.84666,0.49388 0.42333,0.32926 0.81139,0.6938 1.16417,1.09361 0.37629,0.3763 0.56444,0.64676 0.56444,0.81139 -0.0941,0.35277 -0.3763,0.52916 -0.84667,0.52916 h -5.11526 v 1.48167 l 0.0706,1.23472 c 0,0.32926 0.0235,0.84667 0.0706,1.55222 -0.0941,0.21167 -0.36454,0.42333 -0.81139,0.63499 -0.42333,0.21167 -0.82315,0.3175 -1.19944,0.3175 h -0.3175 v -1.34055 h -6.59693 v 2.68111 h 8.11387 l 0.67028,-0.91722 c 0.0706,-0.0706 0.16463,-0.19991 0.28222,-0.38806 0.14111,-0.18815 0.25871,-0.3175 0.35278,-0.38805 0.0941,-0.0941 0.18815,-0.14111 0.28222,-0.14111 0.14111,0 0.42333,0.16463 0.84666,0.49388 0.44685,0.30574 0.84667,0.64676 1.19945,1.02306 0.37629,0.37629 0.56444,0.64675 0.56444,0.81138 -0.0705,0.3763 -0.35278,0.56445 -0.84667,0.56445 h -11.46525 v 2.78694 h 10.05415 l 0.70555,-0.9525 c 0.0941,-0.11759 0.19991,-0.2587 0.3175,-0.42333 0.14111,-0.18815 0.25871,-0.32927 0.35278,-0.42334 0.0941,-0.0941 0.18815,-0.14111 0.28222,-0.14111 0.14111,0 0.43509,0.16463 0.88194,0.49389 0.47037,0.32926 0.8937,0.6938 1.27,1.09361 0.39981,0.37629 0.59972,0.64676 0.59972,0.81139 -0.0941,0.37629 -0.39981,0.56444 -0.91722,0.56444 h -23.63606 c -1.66981,0.0235 -3.4337,0.18816 -5.29166,0.49389 l -0.95249,-1.79917 c 1.29351,0.14111 2.85749,0.23519 4.69193,0.28223 h 9.45442 v -2.78694 h -5.25637 c -1.66981,0.0235 -3.4337,0.18816 -5.29166,0.49389 l -0.88194,-1.83444 c 1.29351,0.14111 2.85749,0.23518 4.69193,0.28222 h 6.73804 v -2.68111 h -4.19804 c -1.66981,0.0235 -3.4337,0.18816 -5.29166,0.49389 l -0.91722,-1.83444 c 1.29352,0.14111 2.8575,0.23519 4.69194,0.28222 h 5.71498 v -2.82222 h -8.18442 c -1.66981,0.0235 -3.4337,0.18816 -5.29166,0.49389 l -0.91722,-1.76388 c 1.29352,0.14111 2.8575,0.23518 4.69194,0.28222 h 9.70136 v -2.75166 h -3.98638 c -1.66981,0.0235 -3.43369,0.18816 -5.29165,0.49389 l -0.9525,-1.83444 c 1.29352,0.14111 2.8575,0.23518 4.69194,0.28222 h 5.53859 c 0,-1.34055 -0.0588,-2.37537 -0.17638,-3.10444 1.22296,0.37629 2.06962,0.68203 2.53999,0.91722 0.49389,0.21167 0.74083,0.39981 0.74083,0.56444 0,0.0941 -0.10583,0.22343 -0.3175,0.38806 l -0.59972,0.38805 v 0.84667 h 6.27943 l 0.52917,-0.67028 c 0.0471,-0.0705 0.11762,-0.16463 0.21166,-0.28222 0.11759,-0.14111 0.21167,-0.24695 0.28223,-0.3175 0.0941,-0.0705 0.18815,-0.10583 0.28222,-0.10583 0.14111,0 0.42333,0.15287 0.84666,0.45861 0.42333,0.28222 0.81139,0.59972 1.16417,0.9525 0.37629,0.32925 0.56444,0.5762 0.56444,0.74083 -0.30574,0.30574 -0.76435,0.52916 -1.37583,0.67027 v 2.36361 h 1.83444 z m -4.65666,-1.79916 h -6.59693 v 2.75166 h 6.59693 z m -6.59693,3.73943 v 2.82222 h 6.59693 v -2.82222 z" id="path11" class="svg-elem-11"></path>
    <path style="font-size: 35.2777px; font-family: &quot;Shippori Mincho&quot;; fill: rgb(0, 0, 0); stroke: rgb(0, 0, 0); stroke-width: 0.352778; stroke-linecap: round;" d="m 309.65071,200.28953 c 0,0.11759 -0.21167,0.27046 -0.635,0.45861 -0.39981,0.18815 -0.82314,0.28222 -1.26999,0.28222 -0.11759,0 -0.22343,-0.0705 -0.3175,-0.21166 -0.0941,-0.14111 -0.14111,-0.30574 -0.14111,-0.49389 0.0941,-0.84667 0.16463,-1.91676 0.21166,-3.21027 v -1.97555 c 0,-2.56351 -0.12935,-4.5861 -0.38805,-6.06777 l 2.75166,1.30528 h 14.88719 l 0.52916,-0.70556 c 0.0706,-0.0941 0.18815,-0.23518 0.35278,-0.42333 0.16463,-0.21167 0.3175,-0.3175 0.45861,-0.3175 0.14111,0 0.43509,0.15287 0.88194,0.45861 0.44685,0.28222 0.85843,0.59972 1.23472,0.9525 0.3763,0.35278 0.56445,0.61148 0.56445,0.77611 -0.28223,0.32926 -0.77612,0.56444 -1.48167,0.70555 v 2.82222 c 0.0471,2.30481 0.11762,4.10397 0.21167,5.39749 -0.11759,0.21167 -0.39982,0.41157 -0.84667,0.59972 -0.44685,0.21167 -0.84666,0.3175 -1.19944,0.3175 -0.30574,0 -0.45861,-0.23519 -0.45861,-0.70556 0.0235,-0.0706 0.0353,-0.15287 0.0353,-0.24694 0.0235,-0.0705 0.0471,-0.15287 0.0706,-0.24694 v -0.59973 h -15.45164 z m 15.45164,-6.13832 v -2.78694 h -15.45164 v 2.78694 z m -15.45164,1.02305 v 2.92805 h 15.45164 v -2.92805 z" id="path12" class="svg-elem-12"></path>
    <path style="font-size: 35.2777px; font-family: &quot;Shippori Mincho&quot;; fill: rgb(0, 0, 0); stroke: rgb(0, 0, 0); stroke-width: 0.352778; stroke-linecap: round;" d="m 354.48868,199.97203 c -0.49389,0 -0.87018,-0.2587 -1.12889,-0.77611 -0.2587,-0.49389 -0.56444,-1.28175 -0.91722,-2.3636 -0.72907,-2.28129 -1.34055,-3.92759 -1.83444,-4.93888 -0.49389,-1.03481 -1.14064,-2.17546 -1.94027,-3.42194 -0.11759,-0.18815 -0.3763,-0.58796 -0.77611,-1.19944 -0.39981,-0.61148 -0.67028,-1.09361 -0.81139,-1.44639 -0.14111,-0.37629 -0.21166,-0.71731 -0.21166,-1.02305 0,-0.39981 0.10583,-0.84666 0.3175,-1.34055 0.23518,-0.49389 0.62323,-1.16416 1.16416,-2.01083 2.06963,-3.33962 3.48073,-5.96193 4.23332,-7.86693 0.23519,-0.61148 0.35278,-1.10537 0.35278,-1.48166 0,-0.39981 -0.11759,-0.71731 -0.35278,-0.9525 -0.14111,-0.14111 -0.35277,-0.30574 -0.63499,-0.49389 -0.25871,-0.18815 -0.38806,-0.32926 -0.38806,-0.42333 0,-0.14111 0.15287,-0.21166 0.45861,-0.21166 0.32926,0 0.77611,0.10583 1.34055,0.3175 0.56445,0.18815 1.07009,0.44685 1.51694,0.7761 0.51741,0.3763 0.77611,0.84667 0.77611,1.41111 0,0.28222 -0.0941,0.67028 -0.28222,1.16417 -0.32926,0.79963 -0.6938,1.5287 -1.09361,2.18721 -0.37629,0.65852 -0.96425,1.46991 -1.76388,2.43417 -1.71685,2.09314 -3.09268,3.88054 -4.12749,5.36221 -0.25871,0.35277 -0.38806,0.72907 -0.38806,1.12888 0,0.37629 0.16463,0.75259 0.49389,1.12889 1.59925,1.76389 3.16323,3.86879 4.69193,6.31471 1.55222,2.4224 2.32833,4.53906 2.32833,6.34998 0,0.39981 -0.0823,0.72907 -0.24694,0.98778 -0.16463,0.2587 -0.42334,0.38805 -0.77611,0.38805 z" id="path13" class="svg-elem-13"></path>
    <path style="font-size: 35.2777px; font-family: &quot;Shippori Mincho&quot;; fill: rgb(0, 0, 0); stroke: rgb(0, 0, 0); stroke-width: 0.352778; stroke-linecap: round;" d="m 387.89666,179.22875 c 1.41111,0 2.44592,0.48213 3.10443,1.44638 0.68204,0.94074 1.02306,2.25777 1.02306,3.9511 0,0.84667 -0.12935,2.04611 -0.38806,3.59833 -0.2587,1.55222 -0.65851,3.09268 -1.19944,4.62138 -0.54093,1.5287 -1.2112,2.69286 -2.01083,3.49249 -0.42333,0.42333 -0.85842,0.77611 -1.30527,1.05833 -0.44685,0.28222 -0.84667,0.42333 -1.19945,0.42333 -0.35277,0 -0.62323,-0.11759 -0.81138,-0.35277 -0.16463,-0.23519 -0.30574,-0.50565 -0.42333,-0.81139 -0.11759,-0.30574 -0.19991,-0.50565 -0.24695,-0.59972 -0.2587,-0.68204 -0.82314,-1.57574 -1.69333,-2.68111 -0.2587,-0.30574 -0.38805,-0.51741 -0.38805,-0.635 0,-0.0471 0.0353,-0.0706 0.10583,-0.0706 0.11759,0 0.5762,0.2587 1.37583,0.77611 l 0.635,0.42333 c 0.37629,0.28222 0.68203,0.48213 0.91722,0.59972 0.23519,0.11759 0.47037,0.17639 0.70555,0.17639 0.79963,0 1.50519,-0.635 2.11667,-1.905 0.63499,-1.26999 1.12888,-2.7399 1.48166,-4.40971 0.35277,-1.69333 0.52916,-3.06916 0.52916,-4.12749 0,-2.46944 -0.76435,-3.70416 -2.29305,-3.70416 -0.98777,0 -2.3636,0.42333 -4.12749,1.27 -1.10537,4.89184 -2.86925,9.30155 -5.29165,13.22914 -0.30574,0.51741 -0.635,0.92898 -0.98778,1.23472 -0.35277,0.28222 -0.69379,0.42333 -1.02305,0.42333 -0.25871,0 -0.48213,-0.0941 -0.67028,-0.28222 -0.18815,-0.18815 -0.28222,-0.42333 -0.28222,-0.70556 0,-0.65851 0.45861,-1.58749 1.37583,-2.78694 2.35185,-3.12795 3.97462,-6.53813 4.86832,-10.23053 -2.30481,1.01129 -3.73943,1.51694 -4.30388,1.51694 -0.49389,0 -0.99953,-0.15287 -1.51694,-0.45861 -0.49389,-0.30574 -0.90546,-0.68203 -1.23472,-1.12888 -0.32925,-0.47037 -0.49388,-0.90547 -0.49388,-1.30528 0,-0.21167 0.0588,-0.3175 0.17639,-0.3175 0.0941,0 0.23518,0.047 0.42333,0.14111 0.21167,0.0941 0.3763,0.16463 0.49389,0.21167 0.65851,0.28222 1.34055,0.42333 2.0461,0.42333 0.91722,-0.0235 1.69333,-0.11761 2.32833,-0.28222 0.635,-0.18815 1.49342,-0.48213 2.57527,-0.88194 0.32926,-1.5287 0.49389,-2.81046 0.49389,-3.84527 0,-1.19944 -0.24694,-2.09314 -0.74083,-2.68111 -0.16463,-0.18815 -0.38806,-0.42333 -0.67028,-0.70555 -0.2587,-0.28222 -0.38805,-0.47037 -0.38805,-0.56444 0,-0.14111 0.0941,-0.24695 0.28222,-0.3175 0.21167,-0.0706 0.47037,-0.10584 0.77611,-0.10584 0.44685,0 0.91722,0.0706 1.41111,0.21167 0.49389,0.14111 0.88194,0.3175 1.16416,0.52917 0.37629,0.30574 0.56444,0.68203 0.56444,1.12888 0,0.18815 -0.0706,0.56444 -0.21166,1.12889 -0.11759,0.47037 -0.21167,0.92898 -0.28222,1.37583 -0.16463,1.22296 -0.32926,2.29305 -0.49389,3.21027 1.41111,-0.47037 2.64583,-0.70555 3.70416,-0.70555 z" id="path14" class="svg-elem-14"></path>
    <path style="font-size: 35.2777px; font-family: &quot;Shippori Mincho&quot;; fill: rgb(0, 0, 0); stroke: rgb(0, 0, 0); stroke-width: 0.352778; stroke-linecap: round;" d="m 395.55192,178.91125 c 1.81092,0.0705 3.29258,0.42333 4.44499,1.05833 1.17592,0.63499 2.02258,1.37582 2.53999,2.22249 0.51741,0.84667 0.77611,1.63454 0.77611,2.36361 0,0.82315 -0.23518,1.5287 -0.70555,2.11666 -0.44685,0.56444 -0.91722,0.84666 -1.41111,0.84666 -0.28222,0 -0.54092,-0.0823 -0.77611,-0.24694 -0.23519,-0.18815 -0.3763,-0.29398 -0.42333,-0.3175 -0.32926,-0.23519 -0.77611,-0.39982 -1.34056,-0.49389 -0.56444,-0.0941 -1.23471,-0.18815 -2.01082,-0.28222 -0.32926,-0.047 -0.49389,-0.11755 -0.49389,-0.21166 0,-0.11759 0.14111,-0.18815 0.42333,-0.21167 1.5287,-0.16463 2.32833,-0.24694 2.39888,-0.24694 0.635,-0.11759 1.07009,-0.25871 1.30528,-0.42334 0.2587,-0.16463 0.38805,-0.43509 0.38805,-0.81138 0,-1.12889 -0.52916,-2.1637 -1.58749,-3.10444 -1.05833,-0.94074 -2.26954,-1.57574 -3.63361,-1.905 -0.21167,-0.047 -0.3175,-0.11755 -0.3175,-0.21166 0,-0.0941 0.14111,-0.14111 0.42334,-0.14111 z" id="path15" class="svg-elem-15"></path>
    <path style="font-size: 35.2777px; font-family: &quot;Shippori Mincho&quot;; fill: rgb(0, 0, 0); stroke: rgb(0, 0, 0); stroke-width: 0.352778; stroke-linecap: round;" d="m 435.80377,183.99123 c 0.0706,-0.0941 0.16463,-0.23518 0.28222,-0.42333 0.14111,-0.21167 0.2587,-0.36454 0.35278,-0.45861 0.0941,-0.11759 0.18815,-0.17639 0.28222,-0.17639 0.14111,0 0.42333,0.17639 0.84666,0.52917 0.42333,0.35277 0.81139,0.74083 1.16417,1.16416 0.35277,0.39981 0.52916,0.68204 0.52916,0.84667 -0.0941,0.37629 -0.37629,0.56444 -0.84666,0.56444 h -10.79498 c 0.87019,3.19851 2.26954,5.87962 4.19805,8.04332 1.95203,2.14018 4.42147,3.59832 7.40831,4.37443 l -0.0353,0.38806 c -0.96426,0.28222 -1.5875,0.99953 -1.86972,2.15194 -2.98685,-1.22297 -5.29166,-3.03389 -6.91443,-5.43277 -1.62277,-2.4224 -2.78694,-5.59739 -3.49249,-9.52498 h -0.0353 c -0.47037,3.55129 -1.70509,6.58517 -3.70416,9.10165 -1.97555,2.49295 -5.06823,4.4685 -9.27803,5.92665 l -0.3175,-0.59972 c 3.59832,-1.57574 6.24415,-3.55129 7.93748,-5.92665 1.69333,-2.37537 2.75166,-5.20934 3.17499,-8.50193 h -2.82221 c -1.66981,0.0235 -3.41018,0.18816 -5.2211,0.49389 l -0.88195,-1.79916 c 1.29352,0.14111 2.8575,0.23518 4.69194,0.28222 h 4.37443 c 0.0941,-1.01129 0.14111,-2.1637 0.14111,-3.45722 v -5.07999 h -2.22249 c -1.27,0.0235 -2.58703,0.18816 -3.9511,0.49389 l -0.9525,-1.79916 c 1.29351,0.14111 2.85749,0.23519 4.69193,0.28222 h 2.43416 c 0,-2.61055 -0.14111,-4.79776 -0.42333,-6.56165 2.30481,0.65852 3.45722,1.16417 3.45722,1.51694 0,0.11759 -0.0941,0.23519 -0.28223,0.35278 l -0.56444,0.38805 v 4.30388 h 5.07999 l 0.56444,-0.70555 c 0.0706,-0.0706 0.18815,-0.19991 0.35278,-0.38806 0.16463,-0.21167 0.3175,-0.3175 0.45861,-0.3175 0.14111,0 0.42333,0.15287 0.84666,0.45861 0.42333,0.28223 0.81139,0.59973 1.16417,0.9525 0.37629,0.35278 0.56444,0.61148 0.56444,0.77611 -0.32926,0.32926 -0.82315,0.55269 -1.48166,0.67028 v 8.11387 h 0.45861 z m -3.21027,1.02306 v -8.53721 h -5.43277 v 5.07999 c 0,0.79963 -0.047,1.95204 -0.14111,3.45722 z" id="path16" class="svg-elem-16"></path>
    <path style="font-size: 35.2777px; font-family: &quot;Shippori Mincho&quot;; fill: rgb(0, 0, 0); stroke: rgb(0, 0, 0); stroke-width: 0.352778; stroke-linecap: round;" d="m 410.19216,169.1746 c 1.88147,0.28222 3.26906,0.79963 4.16277,1.55222 0.91722,0.75259 1.37583,1.51694 1.37583,2.29305 0,0.39981 -0.10583,0.72907 -0.3175,0.98778 -0.21167,0.23518 -0.49389,0.35277 -0.84667,0.35277 -0.2587,0 -0.54092,-0.0823 -0.84666,-0.24694 -0.23519,-0.75259 -0.72908,-1.56398 -1.48167,-2.43416 -0.75259,-0.8937 -1.52869,-1.61101 -2.32832,-2.15194 z" id="path17" class="svg-elem-17"></path>
    <path style="font-size: 35.2777px; font-family: &quot;Shippori Mincho&quot;; fill: rgb(0, 0, 0); stroke: rgb(0, 0, 0); stroke-width: 0.352778; stroke-linecap: round;" d="m 409.4866,191.15261 c 0.23519,0 0.39982,-0.0353 0.49389,-0.10584 0.0941,-0.0941 0.21167,-0.30574 0.35278,-0.63499 0.30574,-0.65852 0.91722,-2.10491 1.83444,-4.33916 0.94074,-2.23425 2.61055,-6.29119 5.00943,-12.17081 l 0.635,0.17639 c -1.24648,3.85703 -2.31657,7.09082 -3.21027,9.70137 l -1.83444,5.60915 c -0.35278,1.36407 -0.52917,2.36361 -0.52917,2.99861 0,0.39981 0.047,0.8349 0.14111,1.30527 0.11759,0.44685 0.18815,0.71732 0.21167,0.81139 0.16463,0.68203 0.29399,1.29351 0.38806,1.83444 0.0941,0.54093 0.14111,1.15241 0.14111,1.83444 0,0.8937 -0.16463,1.58749 -0.49389,2.08138 -0.32926,0.51741 -0.79963,0.77611 -1.41111,0.77611 -0.30574,0 -0.55268,-0.15287 -0.74083,-0.45861 -0.18815,-0.30574 -0.29398,-0.72907 -0.3175,-1.26999 0.16463,-1.17593 0.24694,-2.32833 0.24694,-3.45722 0,-1.95203 -0.24694,-3.08092 -0.74083,-3.38666 -0.18815,-0.16463 -0.42333,-0.28222 -0.70555,-0.35277 -0.25871,-0.0706 -0.58797,-0.12936 -0.98778,-0.17639 v -0.77611 z" id="path18" class="svg-elem-18"></path>
    <path style="font-size: 35.2777px; font-family: &quot;Shippori Mincho&quot;; fill: rgb(0, 0, 0); stroke: rgb(0, 0, 0); stroke-width: 0.352778; stroke-linecap: round;" d="m 407.79327,177.14736 c 1.81093,0.23519 3.15148,0.70556 4.02166,1.41111 0.87019,0.70555 1.30528,1.42287 1.30528,2.15194 0,0.35277 -0.10583,0.65851 -0.3175,0.91722 -0.21167,0.23519 -0.48213,0.35278 -0.81139,0.35278 -0.28222,0 -0.55268,-0.0823 -0.81139,-0.24695 -0.21167,-0.72907 -0.68203,-1.48166 -1.4111,-2.25777 -0.70556,-0.79963 -1.45815,-1.45814 -2.25778,-1.97555 z" id="path19" class="svg-elem-19"></path>
    <path style="font-size: 35.2777px; font-family: &quot;Shippori Mincho&quot;; fill: rgb(0, 0, 0); stroke: rgb(0, 0, 0); stroke-width: 0.352778; stroke-linecap: round;" d="m 461.06261,177.7118 c 1.69333,0.0941 3.29258,0.52917 4.79777,1.30528 1.50518,0.77611 2.71638,1.86971 3.6336,3.28082 0.94074,1.38759 1.41111,3.01037 1.41111,4.86833 0,6.04425 -4.46851,9.66609 -13.40553,10.86553 l -1.09361,0.10583 c -0.16463,0 -0.24694,-0.0705 -0.24694,-0.21166 0,-0.0941 0.0941,-0.1764 0.28222,-0.24695 0.18815,-0.0705 0.35278,-0.11759 0.49389,-0.14111 0.16463,-0.0235 0.27046,-0.047 0.3175,-0.0705 3.43369,-0.77611 6.12656,-2.04611 8.07859,-3.81 1.95203,-1.76388 2.92805,-4.05693 2.92805,-6.87915 0,-1.50518 -0.34102,-2.81045 -1.02305,-3.91582 -0.68204,-1.10537 -1.59926,-1.97555 -2.75166,-2.61055 -1.15241,-0.635 -2.4224,-1.02306 -3.80999,-1.16417 -1.03481,3.26907 -2.19898,6.09128 -3.4925,8.46665 l 0.81139,0.45861 c 0.47037,0.25871 0.76435,0.44686 0.88194,0.56445 0.23519,0.23518 0.35278,0.48212 0.35278,0.74083 0,0.23518 -0.0941,0.43509 -0.28222,0.59972 -0.16463,0.14111 -0.38806,0.21166 -0.67028,0.21166 -0.56444,0 -1.29351,-0.23518 -2.18722,-0.70555 -1.03481,1.62277 -2.18721,2.93981 -3.45721,3.9511 -1.27,1.01129 -2.36361,1.51694 -3.28083,1.51694 -0.42333,0 -0.84666,-0.15287 -1.26999,-0.45861 -0.42333,-0.30574 -0.77611,-0.77611 -1.05833,-1.4111 -0.28223,-0.65852 -0.42334,-1.46991 -0.42334,-2.43417 0,-3.41017 1.2112,-6.29118 3.63361,-8.64303 -0.23519,-0.61148 -0.39982,-1.07009 -0.49389,-1.37583 -0.49389,-1.29352 -0.85842,-2.19898 -1.09361,-2.71639 -0.23519,-0.54092 -0.51741,-0.95249 -0.84666,-1.23471 -0.16463,-0.16463 -0.32926,-0.30575 -0.49389,-0.42334 -0.16463,-0.11759 -0.24695,-0.21167 -0.24695,-0.28222 0,-0.0941 0.0706,-0.14111 0.21167,-0.14111 0.35278,0 0.83491,0.14111 1.44639,0.42333 0.42333,0.18815 0.78786,0.50565 1.0936,0.9525 0.32926,0.44685 0.635,0.99954 0.91722,1.65805 0.28223,0.65852 0.56445,1.3288 0.84667,2.01083 1.10537,-0.84667 2.29305,-1.51694 3.56305,-2.01083 1.29351,-0.51741 2.55175,-0.85842 3.77471,-1.02305 0.35278,-1.55222 0.52917,-2.71638 0.52917,-3.49249 0,-0.30574 -0.0588,-0.56444 -0.17639,-0.77611 -0.11759,-0.23519 -0.32926,-0.45861 -0.635,-0.67028 -0.11759,-0.0705 -0.27046,-0.15287 -0.45861,-0.24694 -0.18815,-0.11759 -0.28222,-0.22343 -0.28222,-0.3175 0,-0.0941 0.0823,-0.17639 0.24694,-0.24695 0.18815,-0.0941 0.41157,-0.14111 0.67028,-0.14111 0.84666,0 1.56397,0.24695 2.15194,0.74084 0.58796,0.49389 0.88194,1.09361 0.88194,1.79916 0,0.37629 -0.0706,0.79963 -0.21167,1.27 -0.11759,0.47037 -0.1999,0.77611 -0.24694,0.91722 -0.0471,0.14111 -0.0941,0.30573 -0.14111,0.49388 -0.0471,0.18815 -0.10586,0.38805 -0.17639,0.59972 z m -6.70276,7.79638 c 0.47037,0.39981 0.96425,0.79963 1.48166,1.19944 1.01129,-1.97555 1.92851,-4.50379 2.75166,-7.58471 -1.19944,0.11759 -2.35184,0.44685 -3.45721,0.98778 -1.10537,0.51741 -2.11666,1.18768 -3.03389,2.01083 0.35278,0.75259 0.70556,1.4111 1.05834,1.97555 0.35277,0.54092 0.75259,1.01129 1.19944,1.41111 z m 0.38805,3.10443 c -0.84666,-0.58796 -1.55221,-1.24648 -2.11666,-1.97555 -0.635,-0.82315 -1.23472,-1.88148 -1.79916,-3.17499 -0.79963,0.98777 -1.42287,2.05786 -1.86972,3.21027 -0.44685,1.12889 -0.67028,2.25777 -0.67028,3.38666 0,0.70555 0.12935,1.32879 0.38806,1.86972 0.28222,0.54092 0.64676,0.81138 1.09361,0.81138 0.58796,0 1.31703,-0.34102 2.18721,-1.02305 0.89371,-0.68203 1.77565,-1.64629 2.64583,-2.89277 z" id="path20" class="svg-elem-20"></path>
    <path style="font-size: 35.2777px; font-family: &quot;Shippori Mincho&quot;; fill: rgb(0, 0, 0); stroke: rgb(0, 0, 0); stroke-width: 0.352778; stroke-linecap: round;" d="m 495.2114,183.81485 c 1.29352,0 2.52824,0.24694 3.70416,0.74083 1.17593,0.49389 2.14018,1.25824 2.89277,2.29305 0.75259,1.03481 1.12889,2.30481 1.12889,3.80999 0,1.45815 -0.43509,2.75166 -1.30528,3.88055 -0.87018,1.12889 -1.99906,2.01083 -3.38665,2.64582 -1.36407,0.61148 -2.78694,0.91722 -4.26861,0.91722 -1.24647,0 -2.3636,-0.27046 -3.35138,-0.81138 -0.98777,-0.56445 -1.48166,-1.3288 -1.48166,-2.29305 0,-0.79963 0.3175,-1.43463 0.9525,-1.905 0.635,-0.49389 1.36407,-0.74083 2.18721,-0.74083 0.94074,0 1.81092,0.30574 2.61055,0.91722 0.79963,0.61148 1.3876,1.49342 1.76389,2.64583 1.17592,-0.56445 2.15194,-1.35232 2.92805,-2.36361 0.77611,-1.01129 1.16416,-2.12842 1.16416,-3.35138 0,-1.83444 -0.61148,-3.17499 -1.83444,-4.02166 -1.22296,-0.87018 -2.64583,-1.30527 -4.2686,-1.30527 -1.50518,0 -2.89277,0.47037 -4.16277,1.4111 -1.26999,0.91723 -2.56351,2.49297 -3.88054,4.72722 -0.11759,0.18815 -0.29398,0.49389 -0.52917,0.91722 -0.23519,0.39981 -0.45861,0.69379 -0.67028,0.88194 -0.21167,0.18815 -0.44685,0.28222 -0.70555,0.28222 -0.42333,0 -0.74083,-0.12935 -0.9525,-0.38805 -0.18815,-0.25871 -0.28222,-0.56445 -0.28222,-0.91722 0,-0.65852 0.27046,-1.37583 0.81139,-2.15194 0.56444,-0.79963 1.4111,-1.84621 2.53999,-3.13972 1.15241,-1.31703 2.52824,-2.97508 4.12749,-4.97415 1.59926,-1.99907 2.57528,-3.22204 2.92805,-3.66889 l 1.09361,-1.37583 c 0.11759,-0.14111 0.2587,-0.31749 0.42333,-0.52916 0.18815,-0.21167 0.3175,-0.38806 0.38806,-0.52917 0.0941,-0.16463 0.14111,-0.3175 0.14111,-0.45861 0,-0.23518 -0.0941,-0.4586 -0.28222,-0.67027 -0.16463,-0.21167 -0.34102,-0.3175 -0.52917,-0.3175 -0.28222,0 -0.58796,0.19991 -0.91722,0.59972 -0.68203,0.84667 -1.44638,1.55222 -2.29305,2.11666 -0.84667,0.54093 -1.64629,0.81139 -2.39888,0.81139 -1.27,0 -1.99907,-0.87018 -2.18722,-2.61055 l -0.0353,-0.67028 c 0,-0.18815 0.047,-0.28222 0.14111,-0.28222 0.0706,0 0.27047,0.18815 0.59972,0.56444 0.30574,0.32926 0.62324,0.49389 0.9525,0.49389 0.32926,0 0.94074,-0.17639 1.83444,-0.52916 0.8937,-0.3763 1.82268,-0.84667 2.78694,-1.41111 0.54093,-0.32926 1.02305,-0.49389 1.44638,-0.49389 0.39982,0 0.89371,0.12935 1.48167,0.38805 0.61148,0.25871 1.14064,0.59973 1.58749,1.02306 0.44685,0.42333 0.67028,0.87018 0.67028,1.34055 0,0.58796 -0.28222,1.09361 -0.84666,1.51694 -3.26907,2.63407 -6.16184,5.62091 -8.67832,8.96054 1.97555,-1.31703 3.96286,-1.97555 5.96193,-1.97555 z m -1.4111,12.77052 c 0.21166,0 0.48212,-0.0235 0.81138,-0.0706 -0.16463,-0.72907 -0.47037,-1.35231 -0.91722,-1.86972 -0.42333,-0.51741 -1.02305,-0.77611 -1.79916,-0.77611 -0.42333,0 -0.74083,0.10583 -0.9525,0.3175 -0.21167,0.18815 -0.3175,0.42333 -0.3175,0.70555 0,0.44685 0.32926,0.84667 0.98778,1.19945 0.68203,0.32925 1.41111,0.49388 2.18722,0.49388 z" id="path21" class="svg-elem-21"></path>
  </g>
</svg>
